<?xml version="1.0" encoding="UTF-8"?>
<svg xmlns="http://www.w3.org/2000/svg" xmlns:xlink="http://www.w3.org/1999/xlink" width="24pt" height="24pt" viewBox="0 0 24 24" version="1.1">
<g id="surface12191596">
<path style=" stroke:none;fill-rule:nonzero;fill:rgb(100%,100%,100%);fill-opacity:1;" d="M 12 19.921875 C 7.625 19.921875 4.078125 16.375 4.078125 12 C 4.078125 7.625 7.625 4.078125 12 4.078125 C 16.375 4.078125 19.921875 7.625 19.921875 12 C 19.921875 16.375 16.375 19.921875 12 19.921875 Z M 12 19.921875 "/>
<path style=" stroke:none;fill-rule:nonzero;fill:rgb(2.745098%,60.784314%,96.470588%);fill-opacity:1;" d="M 12 4 C 7.582031 4 4 7.582031 4 12 C 4 16.417969 7.582031 20 12 20 C 16.417969 20 20 16.417969 20 12 C 20 7.582031 16.417969 4 12 4 Z M 16 12.800781 L 12.800781 12.800781 L 12.800781 16 L 11.199219 16 L 11.199219 12.800781 L 8 12.800781 L 8 11.199219 L 11.199219 11.199219 L 11.199219 8 L 12.800781 8 L 12.800781 11.199219 L 16 11.199219 Z M 16 12.800781 "/>
</g>
</svg>
